<svg width="1061" height="758" viewBox="0 0 1061 758" fill="none" xmlns="http://www.w3.org/2000/svg">
<g clip-path="url(#clip0_121_2)">
<path d="M1060.83 651.956L1.0011 651.956V6.10352e-05L1060.83 6.10352e-05V651.956Z" fill="url(#paint0_linear_121_2)"/>
<path d="M1061 508.303C1061 508.303 1041.3 518.989 1032.55 519.671C1023.8 520.353 1001.9 525.81 998.977 527.857C996.056 529.904 984.746 536.497 984.746 536.497L967.962 527.857H933.662L861.262 536.497C861.262 536.497 802.562 525.754 788.696 527.857C774.83 529.96 751.478 541.1 751.478 541.1L733.231 550.422C733.231 550.422 731.043 548.137 721.557 550.422C712.071 552.707 669.737 576.703 669.737 576.703C664.346 575.364 658.709 575.364 653.317 576.703C644.923 578.992 603.692 611.95 603.692 611.95C603.692 611.95 592.379 611.04 577.417 617.407C562.455 623.774 521.217 657.924 515.744 661.789C510.271 665.654 491.406 653.554 491.406 653.554C491.406 653.554 484.106 640.042 472.796 634.187C461.486 628.332 424.631 591.849 424.631 591.849L415.143 602.99C415.143 602.99 373.543 583.623 356.03 581.371C338.517 579.119 300.93 560.652 294.361 557.5C287.792 554.348 266.074 541.1 266.074 541.1L244.911 544.006L219.003 536.496H198.933L170.106 541.096C170.106 541.096 151.863 538.608 146.388 536.496C140.913 534.384 123.4 527.856 123.4 527.856L94.9385 532.408L74.5039 550.422L0.00390625 551.848V253.98L1061 275.398L1061 508.303Z" fill="url(#paint1_linear_121_2)"/>
<path d="M0 381.412C0 381.412 59.568 409.773 66.566 407.769C73.564 405.765 177.385 381.966 181.8 381.412C186.215 380.858 225.278 393.758 225.278 393.758C225.278 393.758 429.554 382.275 433.977 381.412C438.4 380.549 570.35 373.571 575.877 373.285C581.404 372.999 636.202 400.785 639.518 400.785C642.834 400.785 737.948 381.555 748.049 381.412C758.15 381.269 814.303 377.365 824.619 381.412C834.935 385.459 946.9 399.921 951.69 400.788C956.48 401.655 1061 357.468 1061 357.468V190.924H0V381.412Z" fill="url(#paint2_linear_121_2)"/>
<path d="M0 261.116L150.412 252.761L186.234 261.116L246.019 237.016L348.249 252.763L435.671 241.734L524.987 237.015C524.987 237.015 581.907 240.424 590.01 241.734C598.113 243.044 649.248 265.297 649.248 265.297L692.311 241.735C692.311 241.735 768.957 236.73 772.272 237.016C775.587 237.302 870.395 252.042 876.288 252.763C882.181 253.484 922.347 237.016 922.347 237.016L972.117 241.735L1006.38 229.497L1061 249.925V89.2461H0V261.116Z" fill="url(#paint3_linear_121_2)"/>
<path d="M1061 130.179C1061 130.179 1001.43 164.01 994.43 161.62C987.432 159.23 883.612 130.835 879.192 130.179C874.772 129.523 835.714 144.907 835.714 144.907C835.714 144.907 631.444 131.207 627.021 130.179C622.598 129.151 490.647 120.825 485.12 120.479C479.593 120.133 424.795 153.279 421.479 153.279C418.164 153.279 323.049 130.34 312.948 130.17C302.847 130 246.694 125.343 236.378 130.17C226.062 134.997 114.094 152.245 109.304 153.279C104.514 154.313 -0.00195312 101.603 -0.00195312 101.603V5.4218L1061 5.4218L1061 130.179Z" fill="url(#paint4_linear_121_2)"/>
<path style="mix-blend-mode:overlay" d="M-532.102 1678.08C-527.049 1670.81 -522.377 1663.25 -516.873 1656.34C-496.054 1630.21 -474.243 1604.84 -454.361 1578.03C-447.161 1568.32 -444.334 1555.37 -439.512 1543.9L-443.772 1541.41C-456.948 1554.65 -469.149 1569.08 -483.503 1580.9C-513.594 1605.66 -543.347 1631.3 -575.877 1652.54C-647.929 1699.59 -689.977 1765.7 -708.799 1848.26C-710.192 1854.01 -712.029 1859.64 -714.293 1865.1C-698.545 1767.98 -657.604 1686.96 -571.093 1632.69C-520.238 1600.79 -478.607 1557.75 -441.21 1510.91C-437.062 1505.58 -434.242 1499.34 -432.983 1492.71C-421.499 1429.43 -397.52 1372.03 -355.201 1322.88C-352.101 1319.28 -350.922 1313.95 -349.201 1309.29C-348.48 1307.35 -348.596 1305.07 -348.449 1302.93C-347.903 1294.91 -347.406 1286.88 -346.758 1276.82C-359.858 1288.89 -371.422 1300.07 -383.553 1310.6C-416.901 1339.54 -451.394 1367.23 -483.761 1397.23C-528.904 1439.06 -564.337 1488.27 -588.192 1545.39C-589.041 1547.11 -589.983 1548.78 -591.012 1550.4C-588.449 1526.22 -544.677 1443.9 -505.397 1405.16C-465.182 1365.5 -422.55 1328.3 -381.134 1290.16C-380.67 1290.47 -381.564 1289.64 -381.747 1289.78C-417.465 1316.28 -459.196 1328.61 -501.691 1336.6C-534.421 1342.75 -556.24 1358 -573.746 1386.6C-597.884 1426.04 -619.534 1465.87 -631.313 1510.97C-629.553 1502.25 -628.165 1493.43 -625.94 1484.83C-623.478 1475.31 -620.506 1465.9 -617.283 1456.6C-614.239 1447.81 -610.583 1439.24 -608.737 1429.57L-626.615 1448.52L-627.779 1447.63L-561.57 1358.4L-563.803 1355.8C-595.782 1366.27 -623.803 1384.06 -652.11 1403.12C-648.89 1399.91 -645.88 1396.45 -642.42 1393.52C-618.02 1372.87 -591.212 1356.25 -561.296 1344.68C-556.786 1342.93 -551.676 1340.06 -549.175 1336.2C-514.575 1282.82 -499.327 1224.77 -508.175 1161.15C-508.405 1159.5 -508.85 1157.88 -509.656 1154.07C-551.203 1174.46 -585.556 1202.21 -615.312 1236.6L-608.799 1222.2L-613.419 1220.59C-570.119 1179.36 -542.985 1128.1 -520.986 1073.68C-519.276 1069.44 -517.733 1064.6 -518.05 1060.18C-521.532 1011.85 -521.75 963.623 -515.06 915.519C-514.893 914.319 -515.336 913.031 -515.722 910.005C-563.307 933.95 -604.964 964.662 -644.365 999.687C-642.213 997.039 -640.239 994.222 -637.883 991.772C-605.574 958.22 -569.851 928.909 -528.803 906.679C-516.742 900.147 -508.384 892.5 -506.645 878.221C-505.792 871.221 -502.664 864.498 -500.198 856.45C-517.952 866.515 -534.075 876.782 -551.18 885.008C-565.367 891.831 -580.334 899.145 -595.619 901.121C-626.568 905.121 -647.784 923.48 -668.244 943.821C-691.06 966.497 -706.463 994.241 -720.536 1022.82C-739.83 1062.01 -757.97 1101.85 -779.128 1140.02C-796.266 1170.93 -820.621 1196.65 -848.728 1218.44C-850.186 1219.72 -852.006 1220.51 -853.936 1220.71C-842.036 1208.11 -829.684 1195.91 -818.336 1182.83C-783.81 1143.05 -763.442 1095.18 -742.16 1047.85C-722.243 1003.56 -701.816 959.561 -664.706 926.23C-658.056 920.257 -651.02 914.714 -644.344 905.79C-661.723 906.797 -679.217 906.88 -696.463 908.981C-757.052 916.365 -808.229 945.634 -857.312 979.514C-906.712 1013.61 -950.052 1054.16 -988.058 1100.6C-1011.2 1128.88 -1035.3 1156.21 -1069.29 1172.38C-1091.99 1183.17 -1115.75 1189.39 -1141.02 1189.83C-1132.39 1188 -1123.72 1186.34 -1115.14 1184.31C-1073.31 1174.44 -1041.38 1149.59 -1013.29 1118.2C-979.591 1080.54 -945.529 1043.17 -910.558 1006.69C-897.358 992.923 -881.185 982.01 -864.058 967.893C-913.271 973.938 -953.919 951.404 -996.985 939.18C-998.636 938.711 -1000.34 938.394 -1001.95 937.828C-1025.08 929.712 -1044.8 930.444 -1064.55 949.628C-1080.58 965.205 -1102.27 974.967 -1122.55 985.388L-1053 935.257L-1055.11 930.701L-1088.64 932.88L-1088.8 931.327C-1078.76 929.692 -1068.74 926.848 -1058.68 926.771C-1048.95 926.696 -1042.46 922.951 -1037.12 915.647C-1018.17 889.703 -998.542 864.222 -980.422 837.709C-950.861 794.452 -922.222 750.587 -873.073 723.502C-890.922 719.373 -906.558 715.085 -922.473 712.491C-927.183 711.726 -933.025 715.091 -937.748 717.673C-985.912 743.962 -1036.84 757.943 -1092.12 753.108C-1093.89 753.052 -1095.64 752.617 -1097.23 751.83C-1039.77 755.057 -988.358 736.745 -938.078 708.171C-941.478 706.365 -943.8 705.06 -946.178 703.88C-972.278 690.958 -999.357 679.68 -1024.27 664.775C-1063.19 641.489 -1102.39 641.595 -1142.36 658.823C-1166.33 669.156 -1189.08 682.271 -1212.7 693.462C-1239.85 706.322 -1268.62 712.184 -1302.2 711.324C-1297.21 709.457 -1295.32 708.169 -1293.39 708.112C-1258.05 707.074 -1226.87 693.271 -1196.16 677.426C-1174.87 666.444 -1153.7 654.519 -1131.16 646.897C-1112.28 640.512 -1091.51 639.752 -1072.29 636.618C-1120.9 603.869 -1169.56 564.483 -1235.83 573.755C-1263.95 577.688 -1291.54 587.241 -1318.59 596.513C-1359.08 610.385 -1399.66 622.303 -1443.02 617.03C-1460.48 614.905 -1477.69 610.699 -1494.62 605.62C-1477.78 607.953 -1461 611.286 -1444.07 612.42C-1403.37 615.148 -1365.41 602.983 -1327.57 589.809C-1301.32 580.673 -1274.82 571.646 -1247.75 565.66C-1206.97 556.64 -1168.17 566.484 -1132.59 586.641C-1093.83 608.598 -1057.09 634.171 -1017.93 655.33C-989.84 670.51 -959.257 681.104 -929.712 693.572C-921.736 696.941 -914.622 695.457 -906.803 690.906C-874.211 671.947 -841.851 650.938 -803.751 646.062C-779.486 642.962 -754.428 646.119 -729.726 646.286C-725.332 646.314 -719.841 646.971 -716.695 644.741C-667.447 609.811 -626.779 565.799 -586.303 521.614L-587.87 518.23L-650.255 540.952L-651.314 538.186C-628.868 529.527 -606.401 520.927 -583.998 512.157C-579.726 510.485 -574.953 508.957 -571.716 505.963C-551.961 487.669 -532.581 468.963 -512.594 449.944C-530.379 445.916 -546.755 440.973 -562.803 458.554C-578.265 475.494 -597.035 489.716 -615.583 503.473C-664.292 539.606 -718.844 550.895 -778.707 541.236C-820.951 534.418 -863.472 528.497 -906.107 525.159C-936.607 522.769 -966.645 529.754 -995.198 541.517C-996.791 542.147 -998.563 542.151 -1000.16 541.527C-972.867 527.173 -943.677 519.513 -913.058 516.842C-872.818 513.329 -833.307 519.673 -794.358 528.03C-713.569 545.364 -645.358 523.149 -587.009 466.33C-578.476 458.021 -569.638 450.03 -561.757 442.65C-606.823 420.358 -651.581 398.316 -696.247 376.091C-739.22 354.708 -777.829 365.018 -813.679 392.585C-835.079 409.041 -854.973 427.523 -876.908 443.185C-892.941 454.636 -911.197 462.976 -929.708 470.607C-888.676 452.436 -858.748 419.407 -823.931 393.035C-806.18 379.588 -785.951 369.409 -766.037 357.26C-784.857 356.655 -804.263 354.89 -823.579 355.606C-908.756 358.766 -990.488 376.249 -1064.54 420.22C-1123.87 455.449 -1184.52 460.376 -1248.01 434.087C-1252.3 432.31 -1256.53 430.417 -1260.06 426.404C-1253.78 428.41 -1247.44 430.249 -1241.23 432.452C-1189.3 450.865 -1139.28 446.221 -1090.91 420.331C-1044.81 395.657 -999.212 369.617 -948.041 356.515C-829.993 326.293 -715.583 329.94 -606.782 392.138C-587.805 402.986 -565.359 407.805 -544.441 415.2C-536.418 418.036 -529.825 415.857 -523.602 409.65C-515.809 401.877 -506.974 395.15 -498.502 387.902C-523.375 381.262 -547.802 375.822 -571.512 368.181C-615.947 353.863 -659.897 338.052 -704.241 323.443C-710.863 321.261 -718.661 321.063 -725.678 321.918C-762.319 326.448 -799.38 326.41 -836.01 321.802C-846.158 320.519 -856.91 324.002 -869.019 325.502L-854.173 319.002C-864.973 315.131 -874.737 312.596 -883.629 308.275C-913.66 293.666 -943.029 277.661 -973.31 263.601C-1017.54 243.068 -1064.82 234.262 -1113.2 234.342C-1127.21 234.365 -1142.66 241.031 -1154.88 248.734C-1174.33 260.999 -1191.18 277.308 -1209.93 290.768C-1231.78 306.435 -1254.43 320.982 -1276.92 335.733C-1280.15 337.85 -1284.41 338.388 -1288.79 338.414C-1232.19 316.063 -1198.74 262.241 -1145.41 235.802L-1146.38 232.078C-1175.56 234.697 -1205.3 234.63 -1233.79 240.536C-1281.09 250.336 -1327.7 263.554 -1374.39 276.121C-1425.12 289.777 -1476.48 286.57 -1516.95 264.629C-1508.36 267.107 -1499.82 269.747 -1491.18 272.029C-1453.64 281.963 -1416.56 279.21 -1379.47 268.807C-1328.79 254.59 -1278.62 236.792 -1226.96 228.207C-1134.47 212.836 -1042.26 215.715 -954.221 254.207C-946.379 257.638 -938.366 261.03 -931.226 265.661C-880.111 298.822 -823.038 303.679 -764.326 301.961C-712.76 300.452 -665.515 282.938 -617.864 265.48C-577.751 250.786 -537.008 236.999 -495.518 227.114C-452.804 216.938 -410.106 227.887 -368.512 238.253C-333.651 246.938 -299.633 258.963 -265.025 268.743C-257.193 270.955 -247.879 272.179 -240.235 270.143C-152.891 246.909 -65.9163 222.283 21.5597 199.569C51.6967 191.742 82.9158 188.012 113.7 182.758C156.877 175.389 174.644 160.015 183.575 117.253C190.313 84.999 194.388 -831.292 199.85 -865.105H374.994C376.594 -844.835 378.232 59.405 379.874 80.161C380.415 86.997 381.162 93.825 381.486 100.668C384.34 160.929 422.299 194.768 471.086 221.054C522.98 249.015 579.816 259.268 636.793 269.983C683.47 278.761 729.706 289.872 776.221 299.533C782.752 300.888 789.843 300.545 796.558 299.855C844.016 294.979 890.131 300.818 936.778 310.93C975.963 319.424 1016.5 314.407 1054.28 299.412C1072.54 292 1089.9 282.562 1106.04 271.274C1160.37 233.781 1220.38 213.98 1285.86 208.362C1349.2 202.927 1410.94 208.062 1471.73 227.991C1483.95 231.999 1499.56 227.7 1513.17 225.016C1539.6 219.803 1565.51 211.765 1592.04 207.363C1607.72 204.763 1624.19 206.886 1640.47 208.885C1589.63 204.185 1544.01 225.727 1495.47 238.296C1536.91 257.214 1577.54 278.264 1620.03 294.429C1659.35 309.385 1698.66 299.536 1736.18 283.138C1742.68 280.297 1749.18 277.446 1755.97 275.852C1702.15 306.497 1646.57 323.752 1585.76 295.723C1555.42 281.74 1525.9 265.699 1494.81 253.679C1426.45 227.251 1355.03 220.42 1282.32 226.213C1238.53 229.703 1198.56 244.793 1161.39 267.927C1162.05 268.852 1162.53 270.047 1162.95 270.027C1199.74 268.394 1232.89 280.301 1264.88 296.945C1290.72 310.39 1316.28 324.561 1342.89 336.29C1376.68 351.18 1412.25 358.309 1449.49 352.421C1451.61 352.149 1453.76 352.051 1455.9 352.13C1456.7 352.135 1457.5 352.588 1459.84 353.323C1413.03 363.708 1369.17 358.897 1327.08 339.744C1304.88 329.644 1283.41 317.898 1261.73 306.671C1223.59 286.926 1184.3 273.734 1140.66 284.714C1136.19 285.842 1131.47 287.398 1127.76 290.014C1090.33 316.373 1051.02 338.402 1002.69 344.503C1017.6 357.829 1031.57 369.036 1044.06 381.695C1084.1 422.284 1122.84 464.195 1163.56 504.08C1196.05 536.005 1233.51 562.437 1274.48 582.342C1330.3 609.448 1386.07 608.348 1442.29 583.993C1501.21 558.469 1551.24 519.5 1600.96 479.952C1636.04 452.052 1673.78 429.831 1720.4 428.44C1754.18 427.433 1785.41 438.44 1816.61 449.23C1855.3 462.613 1894.31 474.564 1935.91 470.63C1953.21 468.995 1970.26 464.791 1984.97 462.192C1965.24 474.339 1917.9 482.936 1883.69 476.262C1854.79 470.627 1826.39 462.014 1798.16 453.447C1764.69 443.291 1731.37 434.053 1695.95 441.697C1665.47 448.275 1639.19 463.366 1615.19 482.505C1565.56 522.084 1516.09 561.834 1460.01 592.288C1459.43 592.6 1459.28 593.688 1458.28 595.768C1513 602.24 1549.19 637.951 1585.42 674.244C1607.18 696.044 1629.71 717.29 1653.6 736.684C1679.22 757.484 1709.37 769.93 1742.3 774.97L1741.44 778.076C1725.14 773.785 1708.46 770.586 1692.62 764.997C1648.45 749.417 1615.6 717.977 1583.31 685.645C1565.25 667.37 1546.24 650.053 1526.37 633.765C1505.65 616.965 1480.86 607.826 1454.27 605.652C1444.04 604.815 1432.63 605.922 1423.2 609.729C1349.89 639.329 1283.87 622.393 1221.18 580.2C1171 546.421 1128.17 504.567 1087.38 460.321C1053.06 423.104 1018.55 386.121 973.268 361.348C936.885 341.448 897.767 334.515 857.567 333.761L963.39 423.861L960.354 427.397C944.626 413.368 929.944 397.888 912.921 385.659C889.005 368.477 863.385 353.659 838.399 337.985C835.939 336.442 832.667 334.785 830.042 335.149C807.726 338.222 785.474 341.749 763.281 346.549C852.681 383.784 909.374 456.416 967.111 527.749C992.717 559.388 1016.43 592.631 1043.07 623.349C1083.07 669.465 1134.88 689.98 1195.95 689.913C1232.72 689.874 1269.79 690.701 1306.2 695.286C1346.03 700.303 1380.71 719.736 1413.62 745C1411.02 745 1409.56 745.466 1408.82 744.933C1359.86 709.851 1304.24 699.989 1245.45 700.646C1215.48 700.981 1185.25 701.372 1155.55 698.073C1103.36 692.303 1062.69 663.752 1029.53 624.882C1000.89 591.314 974.851 555.547 946.829 521.435C909.729 476.272 870.369 433.277 820.54 401.476C788.939 381.306 754.796 367.499 716.951 366.839C699.877 366.539 682.726 370.514 665.612 372.552L665.712 376.699C682.237 386.329 699.143 395.37 715.22 405.699C785.42 450.785 847.48 504.808 886.634 579.676C922.191 647.664 977.234 688.755 1049.05 709.868C1086.85 720.984 1125.43 729.574 1162.98 741.468C1211.1 756.718 1252.54 783.839 1290.11 819.437C1287.75 819.553 1286.35 820.063 1285.79 819.586C1231.41 772.955 1166.44 750.197 1097.83 735.003C1053 725.079 1008.2 714.081 969.667 687.445C951.1 674.611 934.08 659.545 914.653 644.131C919.915 656.19 922.818 668.262 929.616 677.454C955.71 712.722 984.396 745.831 1021.87 769.715C1032.17 776.28 1043.99 780.486 1055.18 785.627C1075.36 794.904 1095.26 804.96 1115.96 812.913C1126.32 816.895 1138.37 819.295 1149.34 818.413C1210.1 813.553 1265.36 829.635 1318.31 858.173C1391.63 897.696 1451.39 952.59 1503.69 1016.59C1519.13 1035.48 1535.43 1053.79 1552.59 1071.12C1584.64 1103.47 1624.93 1117.33 1669.47 1120.6C1624.63 1121.85 1583.52 1110.24 1550.39 1079.35C1527.59 1058.1 1507.96 1033.45 1486.91 1010.31C1484.96 1007.94 1482.65 1005.88 1480.08 1004.21C1502.7 1061.9 1505.16 1125.7 1536.39 1180.6C1535.21 1181.11 1534.03 1181.63 1532.85 1182.15C1526.08 1167.17 1517.77 1152.67 1512.88 1137.1C1503.37 1106.88 1495.5 1076.12 1487.46 1045.46C1477.14 1006.1 1457.39 973.556 1424.91 947.895C1373.56 907.334 1321.51 868.412 1258.27 847.967C1224.78 837.139 1190.49 834.193 1155.47 838.048C1155.6 839.448 1155.38 840.613 1155.78 840.894C1199.33 871.335 1225.08 914.84 1245.2 962.494C1248.2 969.6 1252.21 976.464 1254 983.864C1261.26 1013.88 1281.34 1030.02 1308.54 1042.85C1382.59 1077.78 1427.23 1139.69 1457.34 1213.79C1421.36 1132.39 1362.79 1074.14 1278.54 1039.85C1296.01 1080.23 1319.92 1117.51 1349.34 1150.24C1346.37 1147.8 1343.25 1145.53 1340.47 1142.9C1310.18 1114.17 1288.42 1079.53 1270.05 1042.37C1266.94 1036.08 1260.87 1030.25 1254.74 1026.63C1232.04 1013.26 1208.74 1000.91 1182.73 986.552C1215.21 1029.29 1227.82 1077.71 1246.66 1123.42C1259.78 1155.25 1276.46 1185.6 1290.64 1217.45C1278.79 1197.9 1265.03 1179.23 1255.52 1158.6C1240.49 1125.96 1228.19 1092.04 1214.94 1058.59C1197.69 1015.03 1172.03 978.652 1133.51 950.339C1069.56 903.339 1015.03 846.406 967.473 782.822C964.745 779.132 961.15 776.171 957.005 774.201C938.688 766.101 920.112 758.59 901.6 750.856C910.58 775.256 920.654 800.563 929.182 826.378C937.959 852.956 949.539 876.819 968.638 898.472C999.898 933.917 1015.05 979.072 1034.37 1021.58C1038.54 1030.76 1045.53 1040.66 1053.95 1045.54C1084.66 1063.36 1116.33 1079.59 1148 1095.69C1191.15 1117.61 1228.01 1146.92 1257.17 1185.69C1259.66 1188.76 1261.46 1192.34 1262.45 1196.17C1209.35 1124.79 1125.67 1101.12 1050.85 1058.73C1070.78 1104.85 1096.37 1144.6 1129.96 1179.27C1128.98 1180.15 1128 1181.01 1127.02 1181.88C1115.67 1169.74 1102.42 1158.86 1093.37 1145.2C1074.04 1116 1056.88 1085.37 1038.83 1055.32C1036.22 1050.96 1034.46 1045.62 1030.83 1042.4C987.333 1003.82 962.176 953.899 944.517 900.009C938.253 880.898 926.736 868.963 910.941 858.509C877.092 836.119 837.859 827.172 800.734 812.952C775.225 803.18 749.688 793.483 722.469 783.106C737.485 828.581 753.177 872.886 782.948 909.223C810.817 943.234 842.781 973.917 873.311 1005.71C934.133 1069.05 980.528 1140.77 998.542 1227.83C1011.86 1292.18 1047.41 1339.95 1100.82 1375.96C1123.92 1391.53 1147.6 1406.29 1170.22 1422.53C1200.93 1444.57 1224.84 1473.11 1244.79 1505.04C1245.85 1506.88 1246.78 1508.79 1247.56 1510.76C1247.66 1510.99 1247.18 1511.47 1247.18 1511.46C1232.21 1494.41 1218.87 1475.23 1201.68 1460.58C1176.2 1438.98 1149.27 1419.15 1121.07 1401.26C1074.39 1371.55 1032.24 1338.17 1006.13 1286.51C1006.68 1291.89 1007.24 1297.28 1007.79 1302.66C1008.35 1308.2 1008.81 1313.76 1009.48 1319.29C1020.13 1407.76 1057.39 1485.81 1103.46 1560.53C1135.16 1611.95 1173.2 1658.13 1216.32 1700.25C1258.94 1741.89 1282.86 1793.1 1293.64 1851.04C1293.96 1852.9 1293.53 1854.81 1292.46 1856.35C1291.16 1851.05 1289.96 1845.72 1288.55 1840.45C1287 1834.67 1285.25 1828.94 1283.6 1823.18C1270.87 1778.73 1245.55 1742.06 1213.68 1709.31C1188.61 1683.55 1163.96 1657.38 1141.31 1633.69C1144.87 1658.48 1149.09 1686.28 1152.81 1714.15C1157.17 1746.82 1160.81 1779.6 1165.4 1812.25C1166.69 1821.42 1170.22 1830.28 1172.72 1839.29L1168.72 1840.26C1163.4 1816.36 1156.64 1792.67 1153.11 1768.52C1148.39 1736.32 1147.03 1703.63 1142.65 1671.37C1138.68 1642.15 1127.15 1615.83 1110.27 1591.13C1058.85 1515.9 1017.76 1435.63 999.904 1345.36C994.677 1318.95 994.033 1291.65 989.353 1265.11C973.686 1176.22 931.317 1101.11 869.283 1036.4C863.371 1030.23 858.383 1023.17 852.969 1016.52C851.449 1017.63 849.929 1018.73 848.407 1019.84C850.857 1025.45 853.308 1031.07 855.761 1036.68C843.392 1015.19 830.185 994.833 806.432 979.848C839.951 1051.38 834.478 1127.52 845.681 1200.82C851.342 1237.86 860.263 1273.85 875.648 1308.12C877.216 1311.41 878.257 1314.93 878.732 1318.55C857.871 1283.05 844.304 1243.74 838.827 1202.93C832.654 1158.36 828.911 1113.46 823.227 1068.82C817.844 1026.56 804.665 986.814 779.198 952.151C763.498 930.786 745.269 911.222 730.419 889.329C721.733 876.529 712.501 865.543 699.079 858.205C663.842 838.938 628.56 819.756 593.232 800.658C579.704 793.358 565.932 786.523 550.686 778.658C555.224 802.158 560.87 823.571 563.092 845.335C564.892 863.011 574.861 872.94 587.144 883.446C644.133 932.197 696.071 985.471 732.523 1052C766.191 1113.45 783.757 1179.79 792.146 1248.88C793.646 1261.27 796.225 1272.34 804.377 1283.04C851.325 1344.69 883.822 1413.64 904.455 1488.31C881.135 1416.74 845.842 1351.63 798.881 1291.11C798.013 1293.62 797.19 1294.97 797.112 1296.36C790.657 1411.81 832.904 1507.04 915.548 1586.49C962.782 1631.89 1004.39 1682.16 1029.82 1743.52C1040.93 1770.33 1049.44 1798.21 1059.02 1825.65C1059.67 1827.51 1059.39 1829.71 1060.64 1831C1047.62 1800.37 1035.97 1769.07 1021.27 1739.27C997.895 1691.88 963.427 1652.44 926.893 1614.71C892.604 1579.31 856.77 1544.94 833.224 1500.88C820.784 1477.6 810.808 1453 799.782 1429.14C799.282 1431.81 798.922 1434.51 798.702 1437.22C796.241 1495.46 791.802 1553.71 791.895 1611.95C792.047 1701.79 825.362 1780.65 878.107 1852.32C914.68 1902.01 951.726 1951.45 976.808 2008.54C1000.31 2062.02 1013.54 2118.08 1020.95 2175.73C1021.48 2179.84 1021.01 2184.09 1020.69 2188.27C1003.62 2040.45 929.329 1941.87 868.254 1864.93C884.181 1924.38 872.948 1980.78 867.017 2037.27C862.571 2078.27 863.595 2119.68 870.064 2160.41C868.272 2153.04 866.117 2145.73 864.78 2138.28C863.269 2129.86 862.322 2121.32 861.442 2112.8C860.604 2104.7 859.202 2096.5 859.717 2088.45C862.28 2048.26 865.064 2008.08 868.405 1967.95C871.491 1930.9 871.533 1894.08 859.124 1858.58C854.819 1846.25 848.324 1834.38 841.093 1823.44C806.402 1771.01 784.919 1713.82 777.205 1651.44C776.995 1649.05 776.307 1646.73 775.183 1644.61C766.892 1677.53 767.07 1712.01 775.701 1744.84C784.381 1777.95 795.678 1810.37 806.032 1843.03C820.288 1888 826.18 1933.88 821.158 1981.08C825.701 1910.4 800.479 1846.14 778.458 1781.22C760.608 1728.61 758.608 1675.44 771.591 1621.51C772.972 1615.78 773.198 1609.71 773.435 1603.78C775.895 1542.53 779.861 1481.28 780.119 1420.01C780.329 1369.94 776.394 1319.83 773.437 1269.79C773.023 1262.81 768.915 1255.15 764.424 1249.45C735.043 1212.19 705.09 1175.39 676.011 1139.29C678.046 1157.38 680.376 1177.41 682.511 1197.46C683.237 1204.27 684.198 1211.19 683.776 1217.98C680.35 1273.03 702.215 1320.86 726.237 1368.09C729.104 1373.73 732.529 1379.08 733.237 1386.11C727.466 1376.37 721.388 1366.81 716.001 1356.86C710.286 1346.32 704.937 1335.58 699.955 1324.64C695 1313.8 690.685 1302.66 685.279 1289.71C684.236 1292.64 683.495 1293.86 683.384 1295.15C676.193 1378.88 667.338 1462.51 662.34 1546.38C655.946 1653.69 670.098 1758.62 708.14 1859.76C709.763 1864.07 711.058 1868.5 710.095 1873.8C704.965 1860.33 699.607 1846.93 694.765 1833.35C689.775 1819.35 685.286 1805.18 678.779 1791.32C680.092 1808.08 682.878 1824.89 682.374 1841.61C681.626 1866.37 690.518 1886.77 703.332 1907.29C739.444 1965.12 762.076 2028.1 770.445 2095.96C771.2 2102.35 771.361 2108.79 770.925 2115.2C761.583 2035.46 729.754 1964.75 685.84 1897.27C682.89 1931.27 681.361 1963.7 676.986 1995.75C671.186 2038.19 663.242 2080.34 656.086 2122.59C643.486 2196.99 658.78 2266.57 692.17 2333.07C693.7 2336.12 695.176 2339.2 696.5 2342.33C696.748 2342.92 696.14 2343.87 694.747 2348.99C679.156 2311.55 664.937 2277.4 650.847 2243.57C648.299 2268.94 645.646 2295.34 642.998 2321.75C642.05 2321.67 641.105 2321.6 640.157 2321.52C641.096 2311.37 641.757 2301.19 643.021 2291.08C654.79 2197.06 631.281 2112.41 579.293 2033.58C553.686 1994.75 533.921 1952.07 511.487 1911.14C510.728 1909.76 509.718 1908.5 508.121 1906.14V2011.95C503.814 1963.83 508.78 1914.75 492.871 1867.89C470.715 1960.83 462.24 2053.86 486.437 2147.78C483.773 2137.91 480.842 2128.11 478.522 2118.18C476.189 2108.18 474.229 2098.08 472.528 2087.96C470.754 2077.39 469.278 2066.77 468.033 2056.13C460.314 1990.09 469.367 1925.27 481.65 1860.57C483.541 1850.61 482.513 1839.45 480.208 1829.45C472.033 1793.98 464.033 1758.37 453.439 1723.58C444.392 1693.85 433.058 1664.66 420.613 1636.17C401.067 1591.41 379.741 1547.42 359.118 1503.14C358.613 1502.31 357.96 1501.58 357.191 1500.99C352.635 1539.33 348.035 1578.03 343.438 1616.72L340.414 1616.36C342.895 1596.42 345.985 1576.53 347.724 1556.52C351.116 1517.49 350.735 1479.02 336.924 1441.17C328.169 1417.18 323.695 1391.64 317.624 1368.02C307.956 1401.36 298.104 1436.05 287.802 1470.6C281.558 1491.54 274.131 1512.13 268.302 1533.17C266.658 1539.1 267.328 1546.58 269.414 1552.48C277.419 1575.08 285.903 1597.55 295.269 1619.63C300.703 1632.11 307.12 1644.14 314.459 1655.6C340.434 1696.99 353.029 1742.23 354.759 1790.76C356.377 1836.18 356.559 1881.7 359.949 1926.98C361.849 1952.3 368.971 1977.24 371.485 2003.03C365.947 1980.68 357.561 1958.61 355.467 1935.94C351.13 1889.06 349.899 1841.87 347.846 1794.79C345.989 1752.19 337.213 1711.55 316.046 1674.11C314.202 1670.85 312.152 1667.71 309.03 1662.6C312.509 1688.9 316.337 1712.72 318.689 1736.69C323.302 1783.69 318.954 1830.38 306.867 1875.73C295.249 1919.32 300.536 1961.02 315.956 2001.67C326.707 2030.01 340.785 2057.17 354.456 2084.3C375.45 2125.98 391.441 2169.11 397.041 2215.69C397.901 2222.49 398.102 2229.36 397.641 2236.2C390.932 2168.86 359.718 2110.79 329.532 2052.29C312.137 2018.58 298.498 1983.56 294.844 1945.33C294.657 1943.35 293.801 1941.43 292.667 1937.38C250.021 2073.06 220.746 2207.6 256.658 2348.08C242.283 2298.86 235.025 2248.88 233.408 2197.96C230.897 2118.93 248.416 2043.19 268.272 1967.46C281.172 1918.24 292.928 1868.36 299.887 1818.04C309.903 1745.61 294.9 1675.52 269.167 1607.64C266.13 1599.63 262.767 1591.74 259.493 1583.82C259.029 1582.7 258.169 1581.75 256.006 1578.45C246.758 1610.8 240.893 1644.03 238.506 1677.6C236.242 1710.82 235.642 1744.15 234.57 1770.97C230.565 1710.38 232.788 1643.73 248.442 1578.03C250.742 1568.35 249.578 1560.09 245.342 1551.01C232 1522.44 219.65 1493.4 204.083 1464.71C204.083 1480.7 204.791 1496.72 203.957 1512.66C200.751 1573.97 180.617 1630.88 157.619 1686.98C133.555 1745.67 108.899 1804.13 96.9567 1866.94C88.0167 1913.96 84.3018 1961.22 88.5978 2009.01C89.1348 2014.94 88.6727 2020.96 88.6727 2029.56C73.9967 1919.99 90.5726 1817.5 131.925 1718.31C153.018 1667.71 174.665 1617.21 185.761 1563.09C195.879 1513.73 197.093 1463.99 187.172 1414.82C181.186 1385.17 169.449 1356.7 160.96 1327.51C118.988 1183.16 124.638 1041.33 183.352 902.15C186.263 895.25 185.938 885.288 183.404 878.05C166.41 829.541 148.311 781.421 130.818 733.085C127.707 724.485 125.75 715.47 120.477 707.239C122.615 728.684 124.977 750.107 126.846 771.575C134.223 856.153 135.14 940.416 112.302 1023.21C105.129 1049.21 97.7628 1075.24 88.6478 1100.6C74.0288 1141.27 75.5297 1182.61 83.0096 1223.72C94.0206 1284.24 102.987 1344.63 97.8097 1406.44C87.1097 1534.3 51.7238 1654.14 -20.3693 1761.18C-66.6693 1829.93 -84.8693 1904.1 -73.3182 1985.9C-73.0317 1988.46 -72.9219 1991.03 -72.9894 1993.6C-73.1805 1995.67 -73.4788 1997.73 -73.8832 1999.77C-81.8882 1944.87 -84.6833 1892.58 -70.2933 1840.61C-60.0624 1803.66 -39.4543 1771.98 -19.7933 1739.81C7.85266 1694.56 28.8188 1646.35 44.5529 1595.79C45.3652 1593.31 45.6531 1590.69 45.3978 1588.09C4.38879 1636.55 -55.4373 1667.26 -83.7023 1727.47C-74.4403 1701.44 -59.0571 1679.37 -40.0082 1659.97C-26.8374 1646.46 -12.9357 1633.67 1.63464 1621.68C38.7716 1591.35 59.3346 1552.87 69.6046 1505.78C89.0836 1416.46 84.2698 1328.7 63.2147 1240.73C58.6667 1221.73 56.9967 1202.03 53.6437 1180.37C50.1947 1185.23 47.8978 1188.98 45.1078 1192.31C22.8447 1218.93 2.16162 1247.16 -22.3033 1271.59C-47.4744 1296.72 -60.0742 1327.15 -70.0363 1359.66C-88.5913 1420.23 -87.4973 1482.51 -84.5834 1544.7C-80.6764 1628.16 -86.4973 1710.14 -116.647 1788.99C-121.206 1800.91 -126.96 1812.38 -132.16 1824.06C-130.844 1819.14 -130.032 1814.02 -128.137 1809.33C-111.776 1768.9 -100.475 1726.9 -98.2992 1683.53C-95.6182 1630.1 -95.6802 1576.46 -96.2992 1522.93C-96.9991 1461.83 -96.9662 1401.06 -75.7872 1342.56C-74.0823 1337.84 -72.6993 1333.01 -71.1664 1328.24C-72.3798 1327.58 -73.5929 1326.93 -74.8063 1326.28C-96.6273 1356.88 -119.606 1386.73 -140.035 1418.23C-186.373 1489.7 -207.382 1567.65 -196.291 1653.19C-187.967 1717.38 -168.691 1778.59 -146.723 1839.1C-145.997 1841.1 -143.416 1842.43 -141.699 1844.07C-140.527 1850.25 -140.218 1856.76 -138.049 1862.57C-119.554 1912.13 -105.73 1963.02 -114.58 2015.95C-120.68 2052.44 -131.78 2088.39 -143.674 2123.55C-160.789 2174.13 -176.444 2224.71 -177.136 2278.67C-177.301 2291.45 -177.162 2304.22 -177.162 2314.34C-186.537 2254.94 -176.538 2195.18 -156.462 2136.41C-145.946 2105.6 -134.904 2074.84 -127.013 2043.33C-113.337 1988.74 -120.955 1935.16 -140.434 1883.03C-165.486 1815.99 -190.275 1748.88 -204.857 1678.54C-206.849 1668.94 -208.435 1659.25 -210.683 1647C-212.749 1651.39 -214.116 1653.64 -214.902 1656.07C-227.474 1695.05 -248.89 1729.05 -274.963 1760.1C-283.463 1770.22 -287.18 1780.9 -288.657 1793.64C-298.392 1877.5 -324.857 1955.61 -370.304 2027.03C-372.514 2030.85 -375.346 2034.26 -378.682 2037.14C-333.867 1963.4 -311.14 1882.78 -301.537 1797.25C-325.249 1813.39 -361.737 1877.62 -392.667 1952.25C-388.242 1937.55 -384.222 1922.71 -379.323 1908.17C-363.478 1861.14 -336.106 1820.84 -305.56 1782.36C-301.734 1777.4 -299.305 1771.5 -298.526 1765.29C-295.709 1739.76 -293.826 1714.13 -291.289 1685.01C-294.869 1690.45 -296.862 1692.93 -298.273 1695.71C-314.563 1727.72 -339.264 1752.5 -366.341 1775.29C-397.841 1801.79 -429.872 1827.78 -453.89 1861.83C-460.39 1871.04 -466.337 1880.63 -473.335 1889.49C-460.799 1860.98 -442.795 1835.2 -420.342 1813.62C-399.011 1793.17 -376.112 1774.37 -354.242 1754.47C-328.908 1731.42 -306.681 1705.4 -295.897 1672.61C-288.487 1650.09 -285.672 1625.98 -281.561 1602.45C-275.107 1565.52 -265.054 1529.81 -248.181 1496.18C-247.798 1495.42 -247.069 1494.46 -247.264 1493.83C-251.887 1478.94 -237.536 1470.32 -237.454 1455.71C-246.965 1466.44 -258.736 1475.92 -265.54 1488.16C-281.904 1517.59 -298.271 1547.43 -310.34 1578.76C-326.419 1620.51 -342.929 1661.52 -371.503 1696.56C-374.151 1699.8 -377.003 1702.88 -381.38 1704.98C-380.08 1702.69 -379.045 1700.2 -377.447 1698.14C-350.592 1663.56 -334.205 1623.73 -318.827 1583.23C-304.133 1544.53 -291.286 1504.71 -263.227 1472.73C-255.618 1464.05 -247.983 1455.03 -238.841 1448.18C-227.921 1440.01 -222.035 1429.75 -217.574 1417.26C-201.33 1371.77 -192.063 1324.81 -186.481 1277.02C-186.173 1274.36 -188.076 1271.45 -189.581 1266.66C-188.818 1265.23 -184.953 1261.08 -184.473 1256.56C-181.758 1231.05 -179.855 1205.45 -177.485 1177.61C-181.668 1180.75 -184.341 1182.46 -186.669 1184.55C-214.73 1209.76 -242.452 1235.35 -270.948 1260.06C-279.205 1267.22 -284.104 1274.99 -286.497 1285.49C-297.391 1333.26 -310.614 1380.31 -337.352 1422.12C-344.842 1433.83 -354.452 1444.19 -363.084 1455.17C-337.364 1417.69 -317.884 1377.43 -306.889 1331.89C-325.289 1365.3 -343.461 1397.14 -360.361 1429.65C-366.306 1441.08 -369.129 1454.13 -373.375 1466.45C-388.423 1492.69 -402.236 1519.76 -418.853 1544.97C-436.02 1571.01 -442.31 1599.69 -445.908 1629.61C-450.27 1665.91 -454.023 1702.29 -459.066 1738.49C-460.737 1750.49 -465.587 1762.05 -469.266 1774.8L-449.382 1647.4L-453.84 1646.36L-482.904 1719.6C-483.704 1719.28 -484.51 1718.95 -485.317 1718.63C-473.199 1678.45 -461.081 1638.26 -448.963 1598.08L-452.651 1596.59C-465.92 1611.97 -478.811 1627.7 -492.58 1642.63C-503.552 1654.52 -515.538 1665.49 -527.248 1676.69C-528.402 1677.79 -530.771 1677.62 -532.566 1678.05L-532.102 1678.08ZM-404.337 495.545L-411.137 505.412C-364.137 514.133 -280.929 477.577 -261.362 438.323C-269.888 438.787 -277.752 437.81 -284.749 439.83C-324.509 451.302 -361.929 467.992 -395.93 491.911C-398.53 493.745 -401.796 494.639 -404.753 495.968C-398.981 491.061 -393.753 485.251 -387.345 481.406C-360.139 465.087 -332.582 449.348 -306.322 434.074C-370.565 415.45 -501.678 454.607 -533.206 505.318C-505.826 505.318 -480.198 504.659 -454.625 505.545C-436.837 506.162 -418.856 510.286 -404.337 495.545ZM-1029.8 923.296C-1000.08 932.267 -967.898 942.049 -935.676 951.664C-927.105 954.391 -918.396 956.665 -909.585 958.477C-880.035 963.984 -852.22 961.408 -825.754 944.571C-769.332 908.677 -708.597 886.138 -640.254 889.09C-625.596 889.721 -612.002 885.69 -599.001 877.376C-585.78 868.918 -571.168 861.544 -556.15 857.209C-526.662 848.697 -502.179 832.257 -481.775 810.833C-455.552 783.308 -431.893 753.333 -407.267 724.301C-402.867 719.111 -399.129 713.357 -394.446 706.993C-411.555 711.645 -426.61 716.593 -442.029 719.768C-486.779 728.968 -530.839 722.923 -574.229 711.225C-584.034 708.58 -590.69 709.968 -596.869 717.29C-606.804 729.066 -617.355 740.365 -626.658 752.617C-641.944 772.743 -655.51 794.236 -671.564 813.7C-683.981 828.754 -699.092 841.589 -713.006 855.409L-716.483 851.965C-664.324 813.213 -642.071 750.123 -595.648 705.4C-601.337 703.728 -606.622 703 -611.64 703.852C-637.412 708.223 -663.054 713.379 -688.854 717.552C-736.369 725.238 -779.912 741.433 -815.79 774.774C-820.184 778.856 -824.521 783.001 -828.8 787.209C-832.7 791.052 -836.457 795.034 -840.277 798.954C-800.245 745.794 -746.836 715.873 -681.177 707.27C-663.377 704.937 -645.801 700.841 -628.123 697.555C-649.923 686.598 -671.557 678.539 -692.735 669.414C-701.551 665.614 -707.956 665.999 -716.066 671.724C-748.88 694.894 -783.916 714.489 -824.337 719.604C-851.27 722.79 -876.55 734.256 -896.688 752.42C-913.25 767.127 -929.323 783.041 -942.55 800.713C-973.252 841.727 -1002.09 884.124 -1029.8 923.296ZM256.97 827.844C244.89 853.389 233.557 878.797 220.94 903.551C212.162 920.772 212.147 937.327 214.933 956.389C220.296 993.071 221.933 1030.35 223.933 1067.45C224.733 1082.24 222.412 1097.2 221.509 1112.09C219.737 1098.3 220.976 1084.68 220.95 1071.06C220.921 1057.42 220.041 1043.76 218.779 1030.17C217.471 1016.1 215.647 1002.06 213.326 988.121C211.16 975.104 208.043 962.244 205.026 947.772C202.754 950.456 201.984 951.012 201.7 951.751C171.21 1031.72 156.558 1114.16 162.868 1199.89C169.809 1294.16 196.968 1383.19 232.953 1469.91C241.045 1489.41 249.653 1508.69 258.031 1528.08L261.706 1527.82C275.693 1479.93 290.342 1432.23 303.398 1384.09C310.561 1357.67 314.448 1330.79 312.755 1302.79C309.237 1244.67 307.802 1186.42 305.889 1128.21C305.538 1117.55 305.828 1106.61 307.818 1096.17C313.794 1064.84 319.118 1033.23 327.728 1002.58C339.961 959.021 340.556 959.714 315.498 921.804C295.506 891.56 277.088 860.276 256.97 827.844ZM-31.4713 711.7L-35.5902 708.316C-52.2852 720.741 -69.6813 732.336 -85.5333 745.752C-121.306 776.02 -146.67 814.958 -172.37 853.474C-210.164 910.117 -250.956 963.888 -310.033 1000.63C-312.85 1002.53 -315.128 1005.13 -316.645 1008.17C-344.301 1062.06 -387.781 1098.33 -442.334 1122.88C-447.902 1125.38 -453.106 1132.18 -455.297 1138.15C-469.307 1176.31 -481.109 1215.34 -496.28 1253.01C-507.545 1281 -522.806 1307.38 -537.069 1336.05C-508.892 1328.4 -481.643 1321.46 -454.669 1313.56C-420.393 1303.53 -389.343 1287.19 -364.69 1260.96C-353.09 1248.62 -342.071 1235.07 -333.853 1220.36C-321.371 1198.01 -313.697 1172.81 -300.082 1151.29C-282.277 1123.14 -267.622 1094.62 -262.073 1061.42C-259.915 1048.51 -254.653 1035.91 -249.501 1023.72C-209.549 929.182 -147.371 852.97 -61.3011 796.536C-57.2532 793.881 -52.4213 790.064 -51.2013 785.85C-44.0933 761.286 -37.9473 736.447 -31.4713 711.7ZM-173.271 1254.26C-140.414 1233.72 -105.419 1226.38 -69.9972 1220.06C-54.4048 1217.35 -39.0238 1213.54 -23.9694 1208.66C-14.4443 1205.52 -2.68628 1201.55 2.48474 1194.09C28.0358 1157.19 53.0238 1119.75 63.1998 1074.79C67.6089 1055.29 76.2937 1036.5 78.6527 1016.87C82.2147 987.193 82.6528 957.066 83.0529 927.114C83.3208 907.029 81.2267 886.914 80.1947 866.891C66.8197 890.978 55.4308 914.998 40.8807 936.924C15.2307 975.586 -19.9882 1005.05 -57.0822 1032.34C-63.9071 1037.36 -71.9741 1042.22 -76.0822 1049.16C-99.3591 1088.49 -127.826 1123.65 -158.982 1156.84C-161.511 1159.53 -164.592 1162.92 -164.945 1166.25C-167.963 1194.71 -170.415 1223.23 -173.271 1254.26ZM379.929 1016.23C355.352 1053.8 348.557 1095.74 340.512 1137.36C333.246 1174.96 328.612 1211.92 337.745 1250.49C352.545 1312.96 374.455 1372.62 401.022 1430.77C411.974 1454.74 423.804 1478.3 436.922 1505.57C440.448 1480.43 443.17 1459.34 446.41 1438.33C451.754 1403.64 459.665 1369.19 462.495 1334.31C467.721 1269.88 454.644 1207.23 438.189 1145.29C425.998 1099.4 406.299 1056.91 379.929 1016.23ZM662.477 531.666C672.458 556.531 681.093 579.678 690.964 602.289C714.723 656.727 745.522 706.555 789.033 747.895C763.222 728.356 740.922 704.569 723.089 677.552C705.389 650.634 690.216 622.052 673.937 594.195C685.492 648.561 699.31 702.569 713.637 756.437C714.65 760.251 718.868 764.375 722.63 766.101C744.044 775.932 765.585 785.542 787.438 794.353C823.948 809.07 860.887 822.736 897.287 837.713C907.646 841.976 916.765 849.244 930.045 857.318C918.731 827.838 909.189 801.842 898.765 776.205C891.845 759.193 886.941 739.853 875.388 726.54C848.969 696.094 826.796 663.283 809.305 627.34C796.428 600.876 777.028 581.384 752.567 566.087C725.498 549.152 696.587 537.193 662.475 531.666H662.477ZM-301.277 488.525C-303.096 489.54 -304.939 490.511 -306.725 491.577C-345.758 514.912 -389.125 518.701 -432.965 517.92C-463.692 517.374 -494.38 514.108 -525.059 511.69C-539.872 510.523 -550.818 515.759 -560.998 526.832C-586.804 554.893 -613.267 582.343 -640.389 609.182C-656.989 625.653 -675.145 640.568 -694.662 658.026C-664.036 668.854 -635.183 679.241 -606.146 689.083C-602.466 690.33 -597.559 689.531 -593.655 688.303C-518.772 664.721 -448.155 632.464 -385.744 584.084C-351.714 557.95 -323.037 525.505 -301.279 488.524L-301.277 488.525ZM643.639 2132.45C645.266 2121.76 646.894 2107.32 649.722 2093.13C663.509 2023.95 671.722 1954.25 668.372 1883.61C667.872 1872.95 665.378 1861.28 660.178 1852.14C621.653 1784.44 608.469 1711.28 616.648 1635.03C620.87 1595.7 598.948 1568.57 584.278 1537.38C583.381 1539.45 583.193 1541.76 583.745 1543.95C593.756 1588.81 594.997 1634.26 589.266 1679.52C585.872 1706.33 587.549 1731.02 600.216 1755.12C604.945 1764.11 607.378 1774.36 610.489 1784.15C629.824 1845 641.443 1932.83 635.895 1977.63C634.645 1896.84 619.438 1819.23 584.664 1744.88C583.042 1746.9 582.178 1747.47 582.085 1748.16C572.669 1817.56 565.522 1887.16 576.805 1956.92C581.156 1983.8 586.817 2011.12 596.815 2036.28C610.154 2069.84 628.304 2101.49 643.638 2132.45L643.639 2132.45ZM648.839 1638.02L650.874 1638.09C650.107 1627.46 649.14 1616.83 648.609 1606.18C644.867 1531.38 652.63 1457.18 659.615 1382.86C665.74 1317.71 674.823 1252.54 661.536 1186.94C655.17 1155.5 654.683 1122.76 646.936 1091.75C632.396 1033.56 605.419 980.316 574.098 929.327C572.447 926.873 570.651 924.521 568.718 922.283C559.691 966.151 551.064 1009.38 541.676 1052.46C540.002 1060.14 541.426 1065.11 546.448 1070.76C609.756 1141.94 639.799 1226.29 645.138 1320.48C649.276 1393.53 643.754 1466.13 636.314 1538.68C634.528 1556.08 630.843 1573.89 632.914 1590.92C634.883 1607.02 643.271 1622.35 648.835 1638.02L648.839 1638.02ZM467.886 1453.14L464.144 1453.27C461.62 1478.65 458.65 1504 456.857 1529.44C456.324 1536.97 457.698 1544.51 460.852 1551.38C497.468 1626.28 516.602 1704.69 503.27 1787.93C498.333 1818.76 503.035 1846.17 514.402 1873.83C519.934 1887.3 524.231 1901.33 530.525 1914.42C546.6 1947.83 563.483 1980.85 580.615 2015.18C583.049 2012.34 583.531 2012.02 583.484 2011.81C580.942 2000.17 578.405 1988.54 575.773 1976.92C559.824 1906.57 559.752 1835.61 570.364 1764.79C574.683 1735.96 570.898 1711.45 556.589 1685.51C516.289 1612.42 475.229 1539.17 467.886 1453.14ZM228.767 460.875L226.418 460.429C225.166 464.31 223.906 468.189 222.665 472.073C199.67 544.017 173.265 614.548 137.41 681.289C134.338 687.009 132.66 695.339 134.284 701.402C140.919 726.195 148.32 750.848 156.872 775.049C168.511 807.996 181.456 840.482 194.623 875.232C205.604 852.649 214.316 831.266 225.991 811.645C239.007 789.768 244.154 768.107 234.668 743.896C233.91 741.959 234.062 739.667 233.793 737.542C223.893 659.857 223.349 581.875 226.48 503.785C227.054 489.475 227.995 475.18 228.767 460.875ZM-683.127 315.341C-682.396 316.089 -681.54 316.704 -680.598 317.159C-646.598 328.942 -612.886 341.671 -578.465 352.066C-551.102 360.334 -522.922 365.946 -495.005 372.3C-484.899 374.6 -476.448 371.19 -467.91 364.594C-428.367 334.034 -386.332 307.727 -337.821 293.404C-335.309 292.662 -332.953 291.404 -327.062 288.933C-350.624 283.192 -370.462 278.02 -390.448 273.546C-446.771 260.946 -503.448 255.705 -559.603 272.992C-601.247 285.814 -642.108 301.175 -683.127 315.341ZM705.882 842.68C696.856 815.835 688.046 789.12 678.731 762.58C677.617 759.409 674.131 756.641 671.106 754.645C654.867 743.915 636.938 735.202 622.417 722.551C602.186 704.921 582.58 685.895 566.042 664.851C530.957 620.188 513.631 567.076 499.473 512.857C498.402 508.757 496.173 503.057 492.973 501.725C473.919 493.784 454.419 486.91 433.948 479.261C435.963 484.229 437.572 488.536 439.432 492.731C476.575 576.577 514.992 659.906 541.032 748.195C542.379 752.764 547.2 757.446 551.617 759.783C576.163 772.751 601.345 784.527 625.805 797.647C652.534 811.984 678.717 827.345 705.882 842.68ZM-217.3 286.152C-172.888 302.878 -127.892 318.677 -79.0353 319.004C-21.5023 319.388 31.4467 301.297 83.0836 278.459C107.971 267.451 132.203 254.951 158.248 242.398C154.763 239.258 153.348 237.803 151.754 236.575C127.016 217.497 97.8076 213.438 68.6656 217.275C27.9268 222.559 -12.4825 230.13 -52.3712 239.952C-107.548 253.671 -161.95 270.489 -217.3 286.152ZM514.622 1199.74C511.022 1254.64 519.322 1308.17 528.17 1361.86C540.687 1437.86 589.106 1496.68 621.718 1565.11C622.865 1560.99 623.98 1558.69 624.094 1556.34C627.154 1492.25 630.273 1428.15 632.745 1364.04C632.92 1359.51 628.979 1354.09 625.618 1350.26C605.045 1326.82 582.243 1305.08 563.775 1280.12C545.36 1255.22 531.161 1227.21 514.622 1199.75V1199.74ZM-451.509 1113.79C-400.209 1095.82 -340.155 1043.75 -334.736 1015.86L-395.871 1040.01C-375.3 1028.07 -353.959 1018.22 -333.246 1007.18C-327.724 1004.24 -322.228 998.423 -319.959 992.654C-302.576 948.454 -285.989 903.937 -269.237 859.49C-269.098 859.119 -270.137 858.305 -271.045 857.167C-302.824 869.391 -334.645 882.011 -366.766 893.81C-380.874 898.992 -389.474 908.216 -393.719 922.319C-412.564 984.969 -431.514 1047.59 -451.509 1113.79V1113.79ZM-512.746 415.627L-511.471 420.412C-489.493 418.867 -466.381 421.154 -445.747 415.055C-384.476 396.943 -322.547 391.455 -260.097 402.293C-233.332 406.937 -211.941 403.874 -189.616 388.64C-171.252 376.11 -149.835 368.053 -130.734 358.495C-174.484 342.887 -218.655 326.769 -263.124 311.516C-274.207 307.716 -285.459 308.541 -295.918 316.598C-306.741 324.935 -318.756 331.786 -330.529 338.823C-373.688 364.615 -418.97 384.213 -470.281 386.003C-473.248 386.089 -476.125 387.035 -478.564 388.725C-490.109 397.495 -501.38 406.625 -512.746 415.63V415.627ZM576.77 1698.77C583.495 1665.13 583.47 1598.46 577.308 1564.6C570.908 1529.48 561.684 1495.7 542.236 1464.82C518.75 1427.53 504.429 1386.24 496.298 1342.88C494.562 1333.61 492.607 1324.39 490.753 1315.15C488.262 1320.93 487.616 1326.44 486.82 1331.92C483.32 1356.04 477.42 1380.07 476.632 1404.27C473.042 1513.98 525.929 1604.94 576.77 1698.77ZM990.305 780.791C989.473 782.032 988.64 783.275 987.805 784.52C1061.56 879.238 1150.43 956.313 1256.28 1013.77C1248.38 991.838 1239.68 970.875 1230.24 950.25C1211.2 908.623 1185.97 871.877 1146.17 847.174C1140.41 843.604 1134.11 838.881 1127.84 838.512C1081.7 835.812 1043.6 814.34 1006.94 788.888C1001.93 785.414 995.877 783.452 990.305 780.791ZM671.873 733.352C668.319 721.138 664.185 709.059 661.308 696.688C650.738 651.216 639.359 605.877 630.738 560.029C625.598 532.681 615.105 516.829 584.432 517.011C563.953 517.132 543.44 511.765 521.949 508.711C544.886 603.046 586.803 682.472 671.873 733.352ZM-493.218 883.162L-490.635 885.627C-471.827 876.435 -453.141 866.987 -434.195 858.096C-380.636 832.963 -336.695 797.484 -304.645 746.639C-283.821 713.607 -252.677 690.432 -219.119 670.193C-178.85 645.908 -139.871 619.482 -100.382 593.904C-97.8352 592.253 -95.7202 589.93 -91.1532 585.969C-153.993 596.707 -212.384 611.29 -267.285 637.576C-272.506 640.313 -276.853 644.461 -279.831 649.547C-292.869 671.694 -305.498 694.081 -317.719 716.706C-351.698 779.515 -397.057 828.423 -470.488 843.835C-473.422 844.451 -477.035 846.905 -478.303 849.494C-483.692 860.508 -488.317 871.903 -493.218 883.158V883.162ZM-246.506 828.762C-245.206 829.597 -243.904 830.43 -242.6 831.262C-146.351 788.407 -70.0182 726.141 -37.7902 619.805C-87.6282 630.914 -131.79 650.205 -163.19 691.659C-173.521 705.292 -185.021 718.27 -193.619 732.936C-212.071 764.392 -228.971 796.752 -246.506 828.752V828.762ZM457.97 795.539C449.638 823.582 441.429 849.593 434.436 875.929C432.77 882.213 433.556 890.229 436.011 896.323C443.343 914.523 454.269 931.516 459.796 950.163C472.311 992.4 482.423 1035.35 493.565 1078C494.294 1080.79 495.465 1083.47 497.516 1089.25C499.96 1078.18 501.265 1070.58 503.326 1063.19C522.426 994.635 527.674 925.109 518.067 854.561C517.585 851.009 515.981 846.775 513.437 844.47C495.547 828.252 477.274 812.466 457.97 795.531V795.539ZM-572.74 697.347C-520 712.698 -459.859 711.047 -413.815 691.281C-392.48 682.12 -370.138 671.516 -353.548 655.931C-325.421 629.508 -296.914 605.168 -260.548 591.077C-255.927 589.287 -252.433 584.599 -246.063 579.294C-298.687 576.067 -373.363 596.175 -414.074 619.935C-439.692 634.886 -462.574 654.635 -492.027 663.36C-512.027 669.284 -531.035 678.592 -550.396 686.613C-556.915 689.305 -563.15 692.703 -572.74 697.339V697.347ZM-54.8334 1014.94C41.9667 946.564 83.6317 827.955 70.6737 760.266C69.4506 760.465 68.2615 760.835 67.1417 761.366C39.3877 779.91 11.5067 798.277 -15.8492 817.393C-19.4552 819.912 -21.8011 826.184 -22.2491 830.948C-24.5901 856.081 -23.8242 881.726 -28.4952 906.367C-35.5342 943.525 -46.1714 980.006 -54.8334 1014.93V1014.94ZM-12.6713 1215.52C-42.0632 1221.54 -71.5043 1226.68 -100.463 1233.79C-121.134 1238.87 -141.141 1246.64 -161.473 1253.11C-171.345 1256.26 -174.318 1263.24 -175.843 1273.16C-180.065 1300.64 -184.528 1328.18 -191.119 1355.16C-197.056 1379.45 -205.938 1403.01 -213.519 1426.9C-212.624 1427.75 -211.729 1428.61 -210.835 1429.47C-147.513 1355.32 -68.3922 1296.18 -12.6713 1215.52ZM377.977 813.908C379.677 786.357 381.098 759.03 383.177 731.751C383.877 722.538 380.877 715.891 375.29 708.571C354.814 681.728 333.856 655.053 315.946 626.512C301.131 602.904 290.357 576.759 277.94 552.028C277.549 552.299 277.279 552.712 277.188 553.179C276.201 618.8 279.424 684.143 290.743 748.904C291.286 752.013 292.955 755.886 295.374 757.566C322.292 776.237 349.462 794.547 377.972 813.908H377.977ZM632.242 1351.78C627.63 1248.83 585.348 1140.68 530.913 1093.39C526.56 1118.64 522.252 1142.54 518.513 1166.53C517.967 1170.03 519.551 1174.24 521.163 1177.64C536.894 1210.85 551.563 1244.65 569.113 1276.89C584.473 1305.13 606.943 1328.28 632.237 1351.78H632.242ZM-141.546 465.869C-159.876 461.921 -180.218 460.489 -198.062 453.058C-232.153 438.866 -252.41 454.616 -271.262 479.764C-289.493 504.088 -308.786 527.629 -327.962 551.227C-337.362 562.797 -347.573 573.712 -357.416 584.927C-356.264 582.668 -353.095 581.715 -349.863 581.089C-317.997 574.905 -286.276 567.67 -254.171 563.163C-240.94 561.306 -230.914 558.748 -223.707 546.648C-218.728 538.29 -211.936 530.718 -204.828 523.983C-184.158 504.4 -162.919 485.413 -141.546 465.869ZM288.467 358.616C264.567 460.151 313.579 635.148 381.518 688.656C381.518 668.834 381.175 648.456 381.611 628.093C382.07 606.818 374.265 588.205 365.675 569.315C348.851 532.324 331.646 495.37 317.604 457.294C305.536 424.559 297.646 390.281 288.467 358.616ZM-283.871 1751.45L-280.305 1753.46C-268.943 1736.59 -256.53 1720.33 -246.448 1702.73C-226.225 1667.43 -212.748 1630.25 -214.071 1588.25C-215.471 1543.94 -204.863 1501.51 -186.352 1461.29C-177.164 1441.34 -166.571 1422.03 -155.135 1399.51C-187.954 1432.47 -213.308 1466.92 -233.222 1505.49C-273.146 1582.82 -276.564 1667.52 -283.871 1751.45ZM-164.883 664.84C-251.07 707.093 -353.618 816.633 -369.452 882.447C-335.676 869.257 -302.12 856.423 -268.87 842.847C-264.415 841.026 -260.239 836.063 -258.07 831.532C-250.493 815.708 -244.154 799.291 -236.793 783.355C-217.626 741.863 -195.839 701.882 -164.883 664.84ZM409.168 199.521C435.968 233.282 528.008 307.47 569.244 331.652C590.309 344.005 610.21 349.073 633.237 339.389C641.464 335.93 650.476 334.343 659.122 331.884C688.038 323.657 716.952 315.427 745.863 307.192C707.709 297.907 669.453 290.948 631.04 284.983C578.898 276.89 526.47 269.571 479.461 243.572C455.338 230.23 432.629 214.333 409.168 199.521ZM327.614 1284.65C331.732 1346.62 340.278 1408.73 362.052 1467.24C383.582 1525.08 411.334 1580.62 436.33 1637.11C436.33 1604.13 436.617 1572.52 436.109 1540.93C435.939 1533.78 434.292 1526.74 431.272 1520.26C410.835 1476.93 388.872 1434.29 369.406 1390.54C353.992 1355.9 341.437 1319.99 327.614 1284.65ZM765.785 1234.26C769.721 1169.53 690.524 1018.53 629.385 971.537C637.26 998.874 645.295 1027.04 653.512 1055.15C657.471 1068.69 660.165 1082.91 666.203 1095.49C691.029 1147.21 728.198 1190.21 765.785 1234.26ZM392.392 364.385C397.479 374.092 400.557 385.407 407.72 392.732C446.9 432.798 494.673 457.432 549.833 467.473C565.861 470.391 582.01 472.65 598.103 475.213C598.996 473.987 599.891 472.761 600.787 471.535C585.864 449.235 571.187 426.766 555.732 404.845C553.664 401.911 547.752 400.845 543.479 400.456C525.165 398.795 506.089 400.404 488.602 395.825C457.014 387.552 426.362 375.71 392.392 364.385ZM-370.26 835.746C-409.239 855.64 -450.346 876.531 -491.311 897.697C-494.417 899.297 -498.059 902.48 -498.834 905.581C-508.746 945.204 -511.602 985.481 -508.063 1027.16C-502.142 1022.33 -496.763 1017.12 -493.735 1010.78C-473.604 968.709 -447.461 931.684 -408.124 905.223C-405.365 903.366 -402.496 900.886 -401.041 898.006C-390.129 876.423 -379.562 854.664 -370.259 835.746H-370.26ZM484.322 1189.57C485.916 1172.93 487.389 1158.12 488.732 1143.3C489.422 1135.69 491.789 1127.6 490.132 1120.49C479.532 1075.1 469.012 1029.63 456.444 984.762C448.844 957.623 437.6 931.504 427.995 904.929C416.431 922.855 407.425 939.629 400.969 957.329C398.695 963.57 401.016 972.844 404.055 979.435C420.306 1014.72 439.647 1048.74 453.642 1084.85C466.513 1118.05 473.96 1153.36 484.322 1189.57ZM60.9586 453.28C38.6337 459.552 19.3038 466.64 -0.653198 470.127C-21.2042 473.717 -42.3683 473.727 -63.2533 475.52C-65.5443 475.72 -68.4904 476.697 -69.8253 478.364C-89.2764 502.644 -108.502 527.105 -128.007 551.802C-115.317 549.497 -102.431 546.422 -89.3622 544.912C-38.5452 539.032 5.39661 519.821 39.0826 480.174C46.1287 471.883 52.8286 463.301 60.9586 453.28ZM-153.321 801.741C-183.867 816.607 -212.907 831.154 -242.368 844.795C-250.409 848.519 -255.239 853.295 -258.274 861.562C-272.589 900.536 -287.408 939.327 -302.013 978.196C-302.891 980.535 -303.477 982.984 -304.867 987.596C-238.257 936.798 -199.019 867.252 -153.321 801.741ZM-73.9933 853.688C-152.835 906.627 -198.578 980.688 -235.555 1061.5C-208.826 1038.58 -182.379 1015.61 -157.372 991.163C-118.785 953.436 -93.1503 907.477 -73.9933 853.688ZM-425.447 962.819C-442.155 977.897 -457.711 993.157 -474.558 1006.82C-495.333 1023.67 -503.196 1048.07 -507.421 1071.46C-511.221 1092.5 -504.83 1115.39 -502.795 1139.08C-490.944 1133.52 -480.758 1129.18 -471.076 1123.92C-468.207 1122.36 -465.676 1118.48 -464.817 1115.18C-451.607 1064.8 -438.698 1014.33 -425.447 962.819ZM-468.318 830.729C-428.342 823.306 -395.832 804.919 -369.339 775.807C-336.611 739.841 -318.702 694.972 -292.305 651.274C-297.04 653.52 -299.092 654.032 -300.551 655.256C-320.851 672.256 -342.905 687.649 -360.872 706.856C-386.285 734.021 -408.372 764.271 -432.462 792.706C-443.707 805.98 -456.323 818.091 -468.318 830.729ZM-141.385 1012.39L-142.805 1010.33C-176.22 1042.17 -209.725 1073.91 -242.955 1105.93C-247.488 1110.3 -252.881 1115.6 -254.084 1121.28C-259.003 1144.46 -262.449 1167.95 -266.627 1192.43C-264.19 1191.23 -263.127 1191.06 -262.827 1190.5C-241.493 1149.46 -209.427 1118.71 -170.89 1094.04C-167.77 1091.98 -165.393 1088.97 -164.109 1085.46C-156.283 1061.19 -148.906 1036.76 -141.385 1012.39ZM152.516 326.752C129.696 333.516 109.316 341.16 88.2518 345.394C61.9518 350.684 38.8628 361.844 17.6268 377.383C-2.31311 391.976 -19.3362 409.539 -35.4261 431.728C42.5819 421.193 99.1548 378.943 152.516 326.752ZM-150.31 1079.55C-112.237 1063.68 -84.9972 1039.68 -74.7672 999.884C-74.3433 998.238 -73.4513 996.721 -72.8673 995.111C-61.0374 962.749 -53.1771 929.511 -50.2072 899.011C-68.9071 925.645 -89.8252 954.129 -109.319 983.55C-128.557 1012.59 -142.016 1044.39 -150.31 1079.55ZM-77.3793 476.882C-112.75 467.406 -199.558 522.439 -215.179 560.646C-199.159 560.646 -183.298 561.571 -167.621 560.28C-159.027 559.572 -148.113 557.604 -142.767 551.938C-120.539 528.39 -100.03 503.216 -77.3793 476.885V476.882ZM9.58875 677.042C19.3428 675.249 25.5006 674.096 31.6666 672.988C44.1586 670.742 61.0668 672.588 67.9188 665.156C74.9188 657.573 71.5648 640.806 73.6078 628.199C77.3328 605.227 81.6938 582.358 85.8759 558.944C70.5819 567.451 55.6257 575.685 40.7848 584.123C38.6938 585.31 36.1588 587.191 35.5338 589.264C26.9429 617.683 18.6517 646.187 9.58875 677.045V677.042ZM28.3387 356.707C5.5387 359.921 -16.3273 363.707 -36.9113 376.459C-56.6112 388.667 -79.4862 396.359 -101.747 403.65C-121.724 410.192 -142.763 413.486 -163.335 418.212C-126.885 427.84 -90.2444 435.085 -52.4274 432.726C-49.9064 432.569 -46.8403 430.431 -45.2103 428.306C-24.2533 400.982 -1.28625 375.78 28.3387 356.71V356.707ZM679.623 418.38C702.004 447.08 724.769 476.419 747.769 505.572C750.546 509.093 754.118 512.99 758.13 514.378C804.048 530.269 838.255 561.342 868.142 598.168C869.491 599.832 870.662 601.65 872.1 603.224C873.296 604.387 874.568 605.47 875.907 606.467C826.896 525.352 761.721 461.752 679.622 418.383L679.623 418.38ZM364.769 917.445C368.216 891.259 371.751 867.145 374.222 842.925C374.64 838.845 371.569 832.952 368.222 830.196C351.398 816.362 334.047 803.157 316.649 790.04C311.856 786.424 306.264 783.864 299.758 780.073C303.817 814.801 338.629 888.229 364.769 917.445ZM-271.671 1247.65C-240.045 1216.73 -208.451 1185.78 -176.888 1154.8C-175.253 1153.19 -174.527 1150.24 -174.176 1147.81C-172.232 1134.34 -170.537 1120.84 -168.714 1107.02C-213.544 1124.85 -264.342 1191.92 -271.671 1247.65ZM456.623 1573.07C455.432 1648.23 468.492 1721.07 492.446 1795.25C504.59 1715.21 492.006 1642.29 456.622 1573.07L456.623 1573.07ZM-736.685 656.745C-779.337 641.745 -866.428 664.274 -899.974 698.972C-851.034 711.481 -781.309 692.695 -736.685 656.745ZM823.6 598.526C842.644 633.843 865.066 671.166 883.223 710.462C897.192 740.705 923.959 748.699 951.815 761.943C923.261 702.212 861.429 624.766 823.6 598.526ZM729.223 502.683C706.65 462.978 646.97 412.349 614.664 404.849C624.424 428.578 634.309 452.923 644.554 477.113C645.685 479.784 648.554 482.9 651.183 483.575C677.129 490.214 703.191 496.382 729.223 502.682V502.683ZM423.604 871.221C430.268 842.058 436.318 816.345 441.847 790.521C442.647 786.776 442.417 781.167 440.166 778.691C429.124 766.539 417.237 755.158 404.179 742.025C400.969 772.825 397.936 801.197 395.195 829.595C394.986 832.49 395.768 835.369 397.413 837.76C405.041 847.986 413.096 857.894 423.603 871.22L423.604 871.221ZM627.043 1634.11C619.524 1705.6 628.143 1773.99 665.082 1836.91C661.311 1767.65 651.134 1699.59 627.043 1634.11ZM363.265 255.327C364.165 287.996 450.725 344.706 501.938 348.355L504.009 345.146C457.447 315.434 410.888 285.719 363.265 255.327ZM-353.586 1339.04C-385.246 1372.52 -418.492 1445.23 -419.046 1480.85C-380.79 1442.73 -353.18 1383.53 -353.586 1339.04ZM-7.67126 760.395C16.1288 749.165 63.4387 701.46 68.3287 682.831C49.5367 686.164 31.4738 689.087 13.5758 692.812C10.6108 693.43 6.78967 697.147 6.05164 700.101C1.1106 719.906 -3.09729 739.893 -7.67126 760.395ZM399.869 522.667C398.008 580.267 413.438 631.123 447.015 677.6C448.196 620.252 423.578 572.307 399.869 522.667ZM409.575 658.061C408.425 658.321 407.276 658.582 406.13 658.844C406.13 672.031 407.86 685.499 405.793 698.354C400.431 731.654 429.528 741.573 444.917 761.095C446.637 748.16 450.326 734.404 445.888 724.174C435.929 701.207 421.929 679.989 409.575 658.061ZM391.748 853.83C387.383 882.653 383.854 907.482 379.769 932.216C377.936 943.316 383.369 950.387 391.859 958.992C398.443 940.682 404.65 924.198 410.233 907.506C412.472 900.812 416.49 892.269 414.17 887.006C409.36 876.083 400.848 866.795 391.748 853.83ZM-451.48 369.302C-418.564 370.216 -342.171 336.873 -318.594 311.709C-368.171 319.642 -410.054 341.061 -451.48 369.302ZM-569.558 1182.34C-555.732 1172.97 -536.941 1160.49 -518.489 1147.53C-515.198 1145.22 -511.01 1140.78 -511.175 1137.52C-511.957 1122 -514.103 1106.55 -515.775 1090.95C-535.002 1123.62 -553.87 1155.67 -569.558 1182.34ZM-286.296 1195.38C-287.017 1195.42 -287.736 1195.45 -288.457 1195.49C-299.393 1212.23 -312.134 1228.1 -320.713 1245.98C-327.974 1261.1 -330.413 1278.54 -334.99 1294.95C-333.218 1295.81 -331.446 1296.67 -329.674 1297.54C-321.551 1288.19 -309.948 1280.1 -306.02 1269.24C-297.388 1245.36 -292.632 1220.08 -286.297 1195.38L-286.296 1195.38ZM-168.109 404.463C-124.973 398.563 -82.4342 390.315 -45.0702 365.911C-89.1382 368.844 -130.02 381.93 -168.11 404.464L-168.109 404.463ZM955.128 897.579C962.268 930.567 997.51 999.979 1020.14 1013.51C1002.58 972.06 985.591 932.303 955.128 897.579ZM-470.571 1138.87C-471.376 1138.04 -472.183 1137.2 -472.989 1136.37C-480.665 1139.9 -488.489 1143.17 -495.93 1147.14C-498.096 1148.3 -500.522 1151.46 -500.555 1153.73C-500.896 1176.75 -500.762 1199.76 -500.762 1222.78L-496.774 1223.05C-488.039 1194.99 -479.304 1166.93 -470.571 1138.87ZM-411.383 922.569C-442.076 943.042 -463.302 971.142 -478.215 1004.32C-451.542 980.614 -425.89 956.081 -411.381 922.573L-411.383 922.569ZM-112.594 1074.89C-151.21 1088.45 -162.45 1103.54 -158.448 1135.87L-112.594 1074.89ZM496.817 816.614C497.957 815.481 499.099 814.347 500.242 813.214L465.994 756.996C462.558 765.096 459.024 774.768 462.401 779.324C472.413 792.842 485.148 804.334 496.818 816.617L496.817 816.614ZM-47.5482 698.852C-47.2992 699.625 -47.0482 700.395 -46.8002 701.168C-39.9841 696.197 -29.2463 692.524 -27.0934 686.01C-20.6163 666.41 -17.4813 645.704 -13.0414 625.432L-14.1122 625.205C-25.2601 649.75 -36.4055 674.299 -47.5482 698.852ZM128.801 581.52C139.855 554.075 150.908 526.628 161.961 499.181L158.775 497.898C145.704 524.526 127.875 549.244 128.801 581.516V581.52ZM102.081 515.7C52.0187 546.017 52.0187 546.017 50.5197 560.536C68.4896 545.414 91.7957 538.326 102.081 515.697V515.7ZM-336.979 1350.59C-330.244 1334.76 -323.512 1318.93 -316.301 1301.98C-340.645 1311.69 -335.207 1332.66 -336.979 1350.59V1350.59ZM-406.395 1501.49C-428.208 1519.33 -432.921 1528.25 -427.769 1538.31C-420.558 1525.88 -413.471 1513.69 -406.395 1501.49V1501.49ZM-57.7953 585.17L-55.0953 590.579C-46.2664 583.349 -32.0692 587.795 -25.0372 576.653C-25.7125 575.12 -26.3877 573.584 -27.0624 572.045C-37.3064 576.416 -47.5497 580.789 -57.7924 585.166L-57.7953 585.17Z" fill="url(#paint5_radial_121_2)"/>
<path d="M0 477.956H1061V757.333H0V477.956Z" fill="url(#paint6_linear_121_2)"/>
<path d="M513.183 623.36C510.969 623.25 508.788 622.775 506.729 621.955C504.331 621.069 501.99 620.036 499.719 618.862C495.406 616.671 491.93 614.457 491.785 614.362C490.293 611.739 488.6 609.236 486.722 606.874C484.939 604.594 482.977 602.459 480.855 600.491C478.548 598.327 475.965 596.478 473.174 594.991C470.594 593.656 466.457 590.599 460.874 585.906C456.411 582.152 451.019 577.348 444.848 571.627C434.348 561.892 425.099 552.745 425.007 552.654L415.518 563.795C415.425 563.752 405.087 558.94 392.529 553.83C385.22 550.855 378.66 548.391 373.029 546.504C367.63 544.56 362.065 543.112 356.404 542.176C349.348 541.269 338.229 537.637 323.357 531.376C311.467 526.376 300.606 521.134 295.969 518.896H295.963L295.873 518.852L294.735 518.304C288.287 515.204 266.665 502.038 266.447 501.904L245.283 504.818L219.383 497.308H199.313L170.485 501.908C170.302 501.883 152.145 499.382 146.767 497.308C141.374 495.223 123.954 488.733 123.779 488.668L95.3138 493.22L74.8828 511.234L0.382812 512.66V349.86C0.514812 349.922 14.3898 356.527 29.5338 363.134C38.3118 366.964 45.7278 370.014 51.5768 372.201C58.8838 374.933 63.7548 376.319 66.0528 376.319C66.356 376.327 66.6588 376.293 66.9528 376.219C70.6528 375.16 99.9158 368.363 125.54 362.495C152.125 356.408 179.951 350.14 182.191 349.861C182.297 349.849 182.405 349.843 182.512 349.844C188.14 349.844 225.294 362.084 225.669 362.207C227.711 362.092 430 350.707 434.363 349.861C438.912 348.978 574.895 341.805 576.263 341.734H576.352C579.793 341.734 598.827 350.651 615.62 358.518C627.898 364.27 638.499 369.236 639.904 369.236C641.141 369.236 655.087 366.572 672.744 363.2L672.783 363.193C702.038 357.605 742.103 349.953 748.435 349.863C750.597 349.832 754.901 349.628 760.35 349.369C771.557 348.837 788.488 348.032 802.265 348.032C814.258 348.032 821.909 348.648 825.005 349.863C833.026 353.01 902.077 362.393 935.261 366.903C944.746 368.192 951.011 369.043 952.08 369.237C952.135 369.246 952.191 369.25 952.247 369.249C954.623 369.249 970.127 363.888 998.328 353.315C1021.61 344.585 1047.83 334.44 1061.39 329.169V469.115L1061.38 469.122C1060.85 469.405 1056.09 471.958 1050.45 474.543C1046.95 476.143 1043.8 477.443 1041.08 478.419C1038.46 479.441 1035.73 480.134 1032.94 480.483C1026.54 481.238 1020.2 482.435 1013.96 484.064C1006.45 485.912 1000.72 487.719 999.362 488.664C996.496 490.673 985.244 497.238 985.13 497.304L968.346 488.664H934.046L861.646 497.304C861.525 497.282 849.419 495.068 834.901 492.848C810.816 489.165 799.247 488.392 793.783 488.392C792.212 488.37 790.641 488.461 789.083 488.665C785.13 489.265 777.791 491.036 765.275 496.075C757.782 499.091 751.924 501.88 751.865 501.908L733.618 511.23C733.608 511.22 732.629 510.214 729.187 510.214C726.741 510.273 724.311 510.614 721.944 511.23C719.244 511.881 711.931 514.838 692.476 525.23C681.111 531.299 670.576 537.258 670.132 537.509H670.124C667.367 536.819 664.534 536.477 661.692 536.492C658.996 536.475 656.31 536.817 653.705 537.509C651.791 538.031 647.99 540.209 642.41 543.982C637.944 547.002 632.337 551.042 625.745 555.991C614.485 564.444 604.183 572.674 604.08 572.756C604.08 572.756 603.519 572.711 602.487 572.711C593.979 572.91 585.593 574.779 577.805 578.211C572.795 580.343 564.17 585.911 552.17 594.761C542.088 602.196 531.525 610.539 524.535 616.061H524.53C520.369 619.348 517.362 621.722 516.13 622.59C515.25 623.144 514.221 623.413 513.183 623.36Z" fill="url(#paint7_linear_121_2)"/>
</g>
<defs>
<linearGradient id="paint0_linear_121_2" x1="530.916" y1="651.956" x2="530.916" y2="6.10352e-05" gradientUnits="userSpaceOnUse">
<stop stop-color="#274069"/>
<stop offset="1"/>
</linearGradient>
<linearGradient id="paint1_linear_121_2" x1="744.826" y1="830.473" x2="712.492" y2="243.947" gradientUnits="userSpaceOnUse">
<stop stop-color="#8D8D8D"/>
<stop offset="1"/>
</linearGradient>
<linearGradient id="paint2_linear_121_2" x1="551.72" y1="512.221" x2="551.587" y2="236.698" gradientUnits="userSpaceOnUse">
<stop stop-color="#7E8289"/>
<stop offset="1"/>
</linearGradient>
<linearGradient id="paint3_linear_121_2" x1="530.5" y1="348.041" x2="530.354" y2="98.3977" gradientUnits="userSpaceOnUse">
<stop stop-color="#6F7580"/>
<stop offset="1"/>
</linearGradient>
<linearGradient id="paint4_linear_121_2" x1="509.278" y1="236.93" x2="509.347" y2="38.404" gradientUnits="userSpaceOnUse">
<stop stop-color="#7E8289"/>
<stop offset="1"/>
</linearGradient>
<radialGradient id="paint5_radial_121_2" cx="0" cy="0" r="1" gradientUnits="userSpaceOnUse" gradientTransform="translate(234.009 741.943) scale(1750.96 1607.05)">
<stop stop-color="#66B5EF"/>
<stop offset="0.294" stop-color="#88D2F3"/>
<stop offset="0.483" stop-color="#6DC6EE"/>
<stop offset="0.687" stop-color="#48B5E7"/>
<stop offset="0.901" stop-color="#189FDE"/>
<stop offset="1" stop-color="#0095DA"/>
</radialGradient>
<linearGradient id="paint6_linear_121_2" x1="530.5" y1="535.508" x2="530.5" y2="790.579" gradientUnits="userSpaceOnUse">
<stop/>
<stop offset="1" stop-color="#274069"/>
</linearGradient>
<linearGradient id="paint7_linear_121_2" x1="302.77" y1="505.393" x2="303.177" y2="354.163" gradientUnits="userSpaceOnUse">
<stop stop-color="#274069"/>
<stop offset="0.705" stop-color="#010203"/>
<stop offset="1"/>
</linearGradient>
<clipPath id="clip0_121_2">
<rect width="1060.83" height="757.333" fill="white"/>
</clipPath>
</defs>
</svg>
