<svg width="1062" height="758" viewBox="0 0 1062 758" fill="none" xmlns="http://www.w3.org/2000/svg">
<path d="M1060.94 652.249L1.10999 652.249V0.293396L1060.94 0.293396V652.249Z" fill="url(#paint0_linear_196_2)"/>
<path d="M1061.11 508.597C1061.11 508.597 1041.41 519.282 1032.66 519.964C1023.9 520.646 1002.01 526.103 999.085 528.15C996.164 530.197 984.855 536.79 984.855 536.79L968.071 528.15H933.771L861.371 536.79C861.371 536.79 802.671 526.047 788.805 528.15C774.939 530.253 751.586 541.393 751.586 541.393L733.34 550.715C733.34 550.715 731.152 548.43 721.666 550.715C712.18 553 669.846 576.996 669.846 576.996C664.455 575.658 658.818 575.658 653.426 576.996C645.032 579.285 603.801 612.243 603.801 612.243C603.801 612.243 592.488 611.334 577.526 617.701C562.564 624.068 521.326 658.217 515.853 662.082C510.38 665.947 491.515 653.847 491.515 653.847C491.515 653.847 484.215 640.336 472.905 634.481C461.595 628.626 424.74 592.142 424.74 592.142L415.251 603.284C415.251 603.284 373.652 583.916 356.139 581.664C338.626 579.412 301.039 560.946 294.47 557.794C287.901 554.642 266.183 541.393 266.183 541.393L245.02 544.299L219.112 536.789H199.042L170.215 541.389C170.215 541.389 151.972 538.901 146.497 536.789C141.022 534.677 123.509 528.149 123.509 528.149L95.0474 532.701L74.6128 550.715L0.112793 552.141V254.274L1061.11 275.691L1061.11 508.597Z" fill="url(#paint1_linear_196_2)"/>
<path d="M0.108887 381.705C0.108887 381.705 59.6769 410.066 66.6749 408.062C73.6729 406.058 177.494 382.259 181.909 381.705C186.324 381.151 225.387 394.051 225.387 394.051C225.387 394.051 429.663 382.568 434.086 381.705C438.509 380.842 570.459 373.864 575.986 373.578C581.513 373.292 636.311 401.078 639.627 401.078C642.943 401.078 738.057 381.848 748.158 381.705C758.259 381.562 814.412 377.658 824.728 381.705C835.044 385.752 947.009 400.214 951.799 401.081C956.589 401.948 1061.11 357.761 1061.11 357.761V191.217H0.108887V381.705Z" fill="url(#paint2_linear_196_2)"/>
<path d="M0.108887 261.409L150.521 253.054L186.343 261.409L246.128 237.309L348.358 253.056L435.78 242.027L525.096 237.308C525.096 237.308 582.016 240.717 590.119 242.027C598.222 243.337 649.357 265.59 649.357 265.59L692.42 242.028C692.42 242.028 769.066 237.023 772.381 237.309C775.696 237.595 870.504 252.335 876.397 253.056C882.29 253.777 922.456 237.309 922.456 237.309L972.226 242.028L1006.49 229.79L1061.11 250.218V89.5394H0.108887V261.409Z" fill="url(#paint3_linear_196_2)"/>
<path d="M1061.1 130.472C1061.1 130.472 1001.54 164.303 994.539 161.913C987.541 159.523 883.721 131.128 879.301 130.472C874.881 129.816 835.823 145.2 835.823 145.2C835.823 145.2 631.552 131.5 627.129 130.472C622.706 129.444 490.756 121.118 485.229 120.772C479.702 120.426 424.904 153.572 421.588 153.572C418.272 153.572 323.158 130.633 313.057 130.463C302.956 130.293 246.803 125.636 236.487 130.463C226.171 135.29 114.203 152.538 109.413 153.572C104.623 154.606 0.106934 101.896 0.106934 101.896V5.71513L1061.11 5.71513L1061.1 130.472Z" fill="url(#paint4_linear_196_2)"/>
<path d="M0.108887 478.249H1061.11V757.626H0.108887V478.249Z" fill="url(#paint5_linear_196_2)"/>
<path d="M513.292 623.653C511.078 623.543 508.897 623.069 506.838 622.248C504.44 621.363 502.098 620.33 499.828 619.155C495.515 616.964 492.039 614.75 491.894 614.655C490.402 612.033 488.709 609.529 486.831 607.167C485.048 604.887 483.086 602.752 480.964 600.784C478.657 598.62 476.074 596.771 473.283 595.284C470.703 593.949 466.566 590.892 460.983 586.199C456.52 582.445 451.128 577.641 444.957 571.92C434.457 562.185 425.208 553.038 425.116 552.947L415.627 564.088C415.534 564.045 405.196 559.233 392.638 554.123C385.329 551.148 378.769 548.684 373.138 546.797C367.739 544.854 362.174 543.405 356.513 542.469C349.457 541.562 338.338 537.93 323.466 531.669C311.576 526.669 300.715 521.427 296.078 519.189H296.072L295.982 519.145L294.844 518.597C288.396 515.497 266.774 502.331 266.556 502.197L245.392 505.111L219.492 497.601H199.422L170.594 502.201C170.411 502.176 152.254 499.675 146.876 497.601C141.483 495.516 124.063 489.026 123.888 488.961L95.4227 493.513L74.9917 511.527L0.491699 512.953V350.153C0.623699 350.215 14.4987 356.82 29.6427 363.427C38.4207 367.257 45.8367 370.307 51.6857 372.494C58.9927 375.226 63.8637 376.612 66.1617 376.612C66.4649 376.62 66.7677 376.587 67.0617 376.512C70.7617 375.453 100.025 368.656 125.649 362.788C152.234 356.701 180.06 350.433 182.3 350.154C182.406 350.142 182.513 350.136 182.621 350.137C188.249 350.137 225.403 362.377 225.778 362.5C227.82 362.385 430.109 351 434.472 350.154C439.021 349.271 575.004 342.098 576.372 342.027H576.461C579.902 342.027 598.936 350.944 615.729 358.811C628.007 364.563 638.608 369.529 640.013 369.529C641.25 369.529 655.196 366.865 672.853 363.493L672.892 363.486C702.147 357.898 742.212 350.246 748.544 350.156C750.706 350.125 755.01 349.921 760.459 349.662C771.666 349.13 788.597 348.325 802.374 348.325C814.367 348.325 822.018 348.941 825.114 350.156C833.135 353.303 902.186 362.686 935.37 367.196C944.855 368.485 951.12 369.336 952.189 369.53C952.244 369.539 952.3 369.543 952.356 369.542C954.732 369.542 970.236 364.181 998.437 353.608C1021.72 344.878 1047.94 334.733 1061.5 329.462V469.408L1061.49 469.415C1060.96 469.698 1056.2 472.251 1050.56 474.836C1047.06 476.436 1043.91 477.736 1041.19 478.712C1038.57 479.734 1035.83 480.428 1033.05 480.776C1026.65 481.532 1020.31 482.728 1014.07 484.357C1006.56 486.205 1000.83 488.012 999.471 488.957C996.605 490.966 985.353 497.531 985.239 497.597L968.455 488.957H934.155L861.755 497.597C861.634 497.575 849.528 495.361 835.01 493.141C810.925 489.458 799.356 488.685 793.892 488.685C792.321 488.663 790.75 488.755 789.192 488.958C785.239 489.558 777.9 491.329 765.384 496.368C757.891 499.384 752.033 502.173 751.974 502.201L733.727 511.523C733.717 511.513 732.738 510.507 729.296 510.507C726.85 510.566 724.42 510.907 722.053 511.523C719.353 512.174 712.04 515.131 692.585 525.523C681.22 531.592 670.685 537.551 670.241 537.802H670.233C667.476 537.112 664.643 536.771 661.801 536.785C659.105 536.769 656.419 537.111 653.814 537.802C651.9 538.324 648.099 540.502 642.519 544.275C638.053 547.295 632.446 551.335 625.854 556.284C614.594 564.737 604.292 572.967 604.189 573.049C604.189 573.049 603.628 573.004 602.596 573.004C594.088 573.204 585.702 575.072 577.914 578.504C572.904 580.636 564.279 586.204 552.279 595.054C542.197 602.489 531.634 610.832 524.644 616.354H524.639C520.478 619.641 517.471 622.015 516.239 622.883C515.359 623.438 514.33 623.707 513.292 623.653V623.653Z" fill="url(#paint6_linear_196_2)"/>
<defs>
<linearGradient id="paint0_linear_196_2" x1="531.024" y1="652.249" x2="531.024" y2="0.293396" gradientUnits="userSpaceOnUse">
<stop stop-color="#274069"/>
<stop offset="1"/>
</linearGradient>
<linearGradient id="paint1_linear_196_2" x1="744.935" y1="830.767" x2="712.601" y2="244.241" gradientUnits="userSpaceOnUse">
<stop stop-color="#8D8D8D"/>
<stop offset="1"/>
</linearGradient>
<linearGradient id="paint2_linear_196_2" x1="551.829" y1="512.515" x2="551.696" y2="236.991" gradientUnits="userSpaceOnUse">
<stop stop-color="#7E8289"/>
<stop offset="1"/>
</linearGradient>
<linearGradient id="paint3_linear_196_2" x1="530.609" y1="348.334" x2="530.463" y2="98.6911" gradientUnits="userSpaceOnUse">
<stop stop-color="#6F7580"/>
<stop offset="1"/>
</linearGradient>
<linearGradient id="paint4_linear_196_2" x1="509.387" y1="237.223" x2="509.456" y2="38.6973" gradientUnits="userSpaceOnUse">
<stop stop-color="#7E8289"/>
<stop offset="1"/>
</linearGradient>
<linearGradient id="paint5_linear_196_2" x1="530.609" y1="535.801" x2="530.609" y2="790.872" gradientUnits="userSpaceOnUse">
<stop/>
<stop offset="1" stop-color="#274069"/>
</linearGradient>
<linearGradient id="paint6_linear_196_2" x1="302.878" y1="505.687" x2="303.286" y2="354.456" gradientUnits="userSpaceOnUse">
<stop stop-color="#274069"/>
<stop offset="0.705" stop-color="#010203"/>
<stop offset="1"/>
</linearGradient>
</defs>
</svg>
